<svg width="401" height="43" viewBox="0 0 401 43" fill="none" xmlns="http://www.w3.org/2000/svg">
<g clip-path="url(#clip0)">
<path d="M59.2057 26.4229C59.1545 27.0592 58.8131 27.7625 58.3522 28.1308C57.7036 28.5495 56.1331 29.0183 54.2043 29.0183C47.8031 29.0183 44.4745 25.368 44.4745 20.0097C44.4745 14.3836 48.7932 10.75 54.375 10.75C57.0208 10.75 59.035 11.6207 59.4959 12.1398C59.4617 12.9435 58.8643 13.5129 58.3351 13.4291C57.3622 12.9603 55.9454 12.5417 54.2896 12.5417C50.466 12.5417 47.2057 15.0199 47.2057 19.8423C47.2057 24.0787 49.9027 27.1764 54.8529 27.1764C56.6111 27.1764 58.3181 26.6741 59.1203 26.3392L59.2057 26.4229Z" fill="white"/>
<path d="M112.839 19.7251C112.839 24.5475 109.817 29.0183 103.792 29.0183C97.2028 29.0183 94.6936 23.9949 94.6936 20.0935C94.6936 14.7854 98.1417 10.75 103.792 10.75C109.305 10.75 112.839 14.7352 112.839 19.7251ZM97.4248 19.8423C97.4248 24.7484 100.668 27.4276 103.997 27.4276C107.581 27.4276 110.142 24.8657 110.142 19.8758C110.142 15.5724 107.496 12.3407 103.604 12.3407C100.071 12.3407 97.4248 15.0533 97.4248 19.8423Z" fill="white"/>
<path d="M150.46 11.1351V11.0346C150.836 10.9509 151.962 10.8504 152.287 11.0681C152.526 11.2356 152.526 11.2523 152.782 11.5537C153.755 12.7593 156.571 16.6943 159.439 20.5288C160.89 22.5047 162.136 24.1791 162.887 25.5856C162.75 22.7726 162.767 21.1483 162.767 19.7251V11.9723C162.767 11.336 162.938 11.2188 163.314 11.1853C163.911 11.1016 164.543 11.0681 164.884 11.0681C164.833 12.2737 164.799 13.8812 164.799 16.2087V28.5327C164.594 28.6666 163.57 28.9513 163.041 28.9513C162.836 28.9513 162.733 28.8676 162.58 28.7336C160.651 26.2554 157.988 22.6386 155.513 19.2562C154.489 17.7157 153.464 16.192 152.355 14.4003C152.492 17.7157 152.492 19.206 152.492 20.6125V27.8127C152.492 28.4825 152.321 28.5662 151.928 28.6499C151.467 28.7336 150.904 28.7671 150.392 28.7671C150.443 27.6452 150.477 26.0378 150.477 23.6935V12.3742L150.46 11.1351Z" fill="white"/>
<path d="M203.257 14.8189C203.257 12.9435 203.223 11.8049 203.171 11.3026C203.683 11.2189 204.878 11.0849 205.339 11.0849C205.732 11.0849 205.766 11.2523 205.766 12.5082V24.3633C205.766 28.1643 205.288 29.889 203.837 31.1616C203.103 31.8314 202.011 32.25 201.362 32.25C200.799 32.25 200.304 31.6974 200.201 31.1114L200.235 31.0277C202.318 30.4918 203.274 29.5709 203.274 24.4805V14.8189H203.257Z" fill="white"/>
<path d="M246.563 20.5121C246.563 26.3057 249.379 27.2099 251.513 27.2099C254.039 27.2099 256.514 26.3224 256.514 20.1604V11.8719C256.514 11.3361 256.736 11.2356 257.06 11.1686C257.624 11.1184 258.426 11.0849 258.767 11.0849C258.716 12.1733 258.682 13.8143 258.682 16.1418V20.0767C258.682 28.0806 254.38 29.0351 251.24 29.0351C246.972 29.0351 244.053 26.9922 244.053 20.5288V14.8859C244.053 13.0105 244.019 11.8719 243.968 11.3193C244.361 11.2356 245.624 11.1016 246.068 11.1016C246.511 11.1016 246.58 11.2691 246.58 12.6087V20.5121H246.563Z" fill="white"/>
<path d="M299.444 27.9802C299.444 28.4825 299.308 28.5997 298.932 28.6834C298.284 28.7671 297.225 28.7671 296.85 28.7671C296.901 27.6453 296.969 26.0043 296.969 23.6935V14.3501C296.969 12.977 296.969 12.3073 296.918 11.4533C297.72 11.2858 299.905 11.0347 301.186 11.0347C304.975 11.0347 307.433 12.324 307.433 15.9743C307.433 18.7372 305.043 20.0767 303.883 20.5791C304.565 21.0814 305.47 22.287 306.58 24.0954C308.031 26.4062 309.174 27.8964 309.789 28.4825V28.5997C309.567 28.7671 308.884 28.8509 308.133 28.8509C307.279 28.8509 306.631 28.4657 305.863 27.4276C304.89 26.0378 304.463 25.2508 303.422 23.4926C302.312 21.7344 301.766 21.2656 300.213 21.2656H299.444V27.9802ZM299.444 19.7251C300.469 19.7753 302.124 19.7251 302.517 19.5576C303.592 19.1893 304.821 18.1678 304.821 16.1585C304.821 13.5129 302.995 12.5919 301.117 12.5919C300.52 12.5919 299.871 12.6254 299.444 12.7259V19.7251Z" fill="white"/>
<path d="M346.284 15.0701C346.284 13.764 346.284 12.5919 346.301 11.5202C346.864 11.3528 347.735 11.1519 348.417 11.1519H355.638C355.552 11.8719 355.296 12.3742 354.955 12.6924C354.58 12.8598 353.965 12.8598 352.702 12.8598H348.776V18.7371H355.399C355.177 20.2441 354.597 20.4618 353.658 20.4618H348.759V26.8248C349.356 26.9922 350.858 27.0424 352.224 27.0424C353.504 27.0424 355.331 27.0089 356.44 26.9085L356.491 26.9587C356.269 27.7624 355.809 28.382 355.177 28.6332C354.801 28.6834 353.726 28.7504 351.729 28.7504C349.373 28.7504 347.342 28.6332 346.642 28.4657L346.25 28.3318V15.0701H346.284Z" fill="white"/>
</g>
<defs>
<clipPath id="clip0">
<rect width="312.051" height="21.5" fill="white" transform="translate(44.4745 10.75)"/>
</clipPath>
</defs>
</svg>
