<svg width="13" height="11" viewBox="0 0 13 11" fill="none" xmlns="http://www.w3.org/2000/svg">
<path d="M8.78 5.49C8.28 5.27 7.89 4.94 7.61 4.5C7.33 4.06 7.19 3.54 7.19 2.94C7.19 2.08 7.46 1.38 8 0.84C8.54 0.32 9.23 0.0599999 10.07 0.06C10.91 0.06 11.61 0.33 12.17 0.87C12.71 1.41 12.98 2.1 12.98 2.94C12.98 3.34 12.93 3.74 12.83 4.14C12.73 4.54 12.51 5.14 12.17 5.94L10.43 10.26L7.46 10.26L8.78 5.49ZM1.7 5.49C1.2 5.27 0.81 4.94 0.53 4.5C0.25 4.06 0.11 3.54 0.11 2.94C0.11 2.08 0.380001 1.38 0.920001 0.84C1.46 0.319999 2.15 0.0599993 2.99 0.0599993C3.83 0.0599994 4.53 0.33 5.09 0.87C5.63 1.41 5.9 2.1 5.9 2.94C5.9 3.34 5.85 3.74 5.75 4.14C5.65 4.54 5.43 5.14 5.09 5.94L3.35 10.26L0.38 10.26L1.7 5.49Z" fill="white"/>
</svg>
