<svg width="13" height="11" viewBox="0 0 13 11" fill="none" xmlns="http://www.w3.org/2000/svg">
<path d="M4.22 5.51C4.72 5.73 5.11 6.06 5.39 6.5C5.67 6.94 5.81 7.46 5.81 8.06C5.81 8.92 5.54 9.62 5 10.16C4.46 10.68 3.77 10.94 2.93 10.94C2.09 10.94 1.39 10.67 0.83 10.13C0.29 9.59 0.0200001 8.9 0.0200001 8.06C0.0200001 7.66 0.07 7.26 0.17 6.86C0.27 6.46 0.49 5.86 0.83 5.06L2.57 0.739999H5.54L4.22 5.51ZM11.3 5.51C11.8 5.73 12.19 6.06 12.47 6.5C12.75 6.94 12.89 7.46 12.89 8.06C12.89 8.92 12.62 9.62 12.08 10.16C11.54 10.68 10.85 10.94 10.01 10.94C9.17 10.94 8.47 10.67 7.91 10.13C7.37 9.59 7.1 8.9 7.1 8.06C7.1 7.66 7.15 7.26 7.25 6.86C7.35 6.46 7.57 5.86 7.91 5.06L9.65 0.739999H12.62L11.3 5.51Z" fill="white"/>
</svg>
